<svg width="32" height="32" viewBox="0 0 32 32" fill="none" xmlns="http://www.w3.org/2000/svg">
  <rect width="32" height="32" rx="8" fill="#3B82F6"/>
  <path d="M16 6C10.4772 6 6 10.4772 6 16C6 21.5228 10.4772 26 16 26C21.5228 26 26 21.5228 26 16C26 10.4772 21.5228 6 16 6Z" stroke="white" stroke-width="2"/>
  <path d="M16 6V26" stroke="white" stroke-width="2"/>
  <path d="M6 16H26" stroke="white" stroke-width="2"/>
  <path d="M21.5 11.5C21.5 11.5 19.5 15.5 16 15.5C12.5 15.5 10.5 11.5 10.5 11.5" stroke="white" stroke-width="2" stroke-linecap="round"/>
  <path d="M21.5 20.5C21.5 20.5 19.5 16.5 16 16.5C12.5 16.5 10.5 20.5 10.5 20.5" stroke="white" stroke-width="2" stroke-linecap="round"/>
</svg>